<svg width="53" height="53" viewBox="0 0 53 53" fill="none" xmlns="http://www.w3.org/2000/svg">
<g id="Group 237">
<path id="Union" fill-rule="evenodd" clip-rule="evenodd" d="M28.7286 23.0135C28.1291 23.3143 27.4522 23.4837 26.7357 23.4837C26.0193 23.4837 25.3424 23.3143 24.7429 23.0135L19.8994 31.401C21.0352 32.1516 21.8065 33.4092 21.891 34.8514H31.5807C31.6652 33.4093 32.4364 32.1517 33.5722 31.401L28.7286 23.0135ZM24.2857 22.7489C23.081 21.9528 22.2863 20.5864 22.2863 19.0343C22.2863 16.577 24.2784 14.585 26.7357 14.585C29.193 14.585 31.185 16.577 31.185 19.0343C31.185 20.5863 30.3904 21.9527 29.1859 22.7489L34.0294 31.1364C34.6289 30.8356 35.3059 30.6662 36.0224 30.6662C38.4797 30.6662 40.4717 32.6583 40.4717 35.1156C40.4717 37.5729 38.4797 39.5649 36.0224 39.5649C33.6537 39.5649 31.7174 37.714 31.5807 35.3797H21.891C21.7543 37.714 19.818 39.5649 17.4494 39.5649C14.992 39.5649 13 37.5729 13 35.1156C13 32.6583 14.992 30.6662 17.4494 30.6662C18.1658 30.6662 18.8427 30.8355 19.4422 31.1364L24.2857 22.7489Z" fill="#2D2926"/>
</g>
</svg>
