<svg width="54" height="54" viewBox="0 0 54 54" fill="none" xmlns="http://www.w3.org/2000/svg">
<g id="Group 237">
<path id="Union" fill-rule="evenodd" clip-rule="evenodd" d="M30.9665 18.367C30.0389 18.8421 28.9916 19.1095 27.8832 19.1095C26.7747 19.1095 25.7275 18.8421 24.8 18.3671L17.3064 31.6112C19.0636 32.7965 20.257 34.7823 20.3876 37.0595H35.3792C35.5098 34.7823 36.7031 32.7966 38.4603 31.6113L30.9665 18.367ZM24.0926 17.9493C22.2288 16.6922 20.9993 14.5345 20.9993 12.0838C20.9993 8.20361 24.0813 5.05811 27.8832 5.05811C31.685 5.05811 34.767 8.20361 34.767 12.0838C34.767 14.5344 33.5376 16.692 31.6739 17.9492L39.1677 31.1934C40.0953 30.7184 41.1426 30.451 42.2511 30.451C46.0529 30.451 49.1349 33.5965 49.1349 37.4766C49.1349 41.3568 46.0529 44.5023 42.2511 44.5023C38.5864 44.5023 35.5906 41.5797 35.3792 37.8937H20.3876C20.1762 41.5797 17.1804 44.5023 13.5157 44.5023C9.71384 44.5023 6.63184 41.3568 6.63184 37.4766C6.63184 33.5965 9.71384 30.451 13.5157 30.451C14.6241 30.451 15.6714 30.7183 16.5989 31.1933L24.0926 17.9493Z" fill="#2D2926"/>
</g>
</svg>
