<svg width="28" height="28" viewBox="0 0 28 28" fill="none" xmlns="http://www.w3.org/2000/svg">
<g id="Best For ICON / Pain">
<path id="Vector" d="M13.9998 17.9051C16.1565 17.9051 17.9049 16.1567 17.9049 14C17.9049 11.8433 16.1565 10.095 13.9998 10.095C11.8431 10.095 10.0947 11.8433 10.0947 14C10.0947 16.1567 11.8431 17.9051 13.9998 17.9051Z" fill="white"/>
<path id="Vector_2" d="M13.9998 20.4288C10.4531 20.4288 7.571 17.5429 7.571 14C7.571 10.457 10.4569 7.57117 13.9998 7.57117C17.5427 7.57117 20.4286 10.457 20.4286 14C20.4286 17.5429 17.5427 20.4288 13.9998 20.4288ZM13.9998 9.06824C11.2819 9.06824 9.06807 11.2821 9.06807 14C9.06807 16.7178 11.2819 18.9317 13.9998 18.9317C16.7177 18.9317 18.9315 16.7178 18.9315 14C18.9315 11.2821 16.7177 9.06824 13.9998 9.06824Z" fill="white"/>
<path id="Vector_3" d="M13.9998 22.9526C9.06431 22.9526 5.04724 18.9355 5.04724 14C5.04724 9.06455 9.06431 5.04749 13.9998 5.04749C18.9352 5.04749 22.9523 9.06455 22.9523 14C22.9523 18.9355 18.9352 22.9526 13.9998 22.9526ZM13.9998 6.23843C9.72137 6.23843 6.23817 9.72162 6.23817 14C6.23817 18.2784 9.72137 21.7616 13.9998 21.7616C18.2782 21.7616 21.7614 18.2784 21.7614 14C21.7614 9.72162 18.2782 6.23843 13.9998 6.23843Z" fill="white"/>
<path id="Vector_4" d="M13.9998 25.4763C7.67176 25.4763 2.52349 20.3281 2.52349 14.0001C2.52349 7.67207 7.67176 2.5238 13.9998 2.5238C20.3278 2.5238 25.476 7.67207 25.476 14.0001C25.476 20.3281 20.3278 25.4763 13.9998 25.4763ZM13.9998 3.4086C8.16082 3.4086 3.40829 8.16113 3.40829 14.0001C3.40829 19.839 8.16082 24.5915 13.9998 24.5915C19.8387 24.5915 24.5912 19.839 24.5912 14.0001C24.5912 8.16113 19.8387 3.4086 13.9998 3.4086Z" fill="white"/>
<path id="Vector_5" d="M14 28C6.27947 28 0 21.7205 0 14C0 6.27946 6.27947 0 14 0C21.7205 0 28 6.27946 28 14C28 21.7205 21.7205 28 14 28ZM14 0.578668C6.60053 0.578668 0.578666 6.60053 0.578666 14C0.578666 21.3995 6.60053 27.4213 14 27.4213C21.3995 27.4213 27.4213 21.3995 27.4213 14C27.4213 6.60053 21.3995 0.578668 14 0.578668Z" fill="white"/>
</g>
</svg>
