<svg width="28" height="28" viewBox="0 0 28 28" fill="none" xmlns="http://www.w3.org/2000/svg">
<g id="Best For ICON / Stress">
<path id="Vector" fill-rule="evenodd" clip-rule="evenodd" d="M12.2527 5.16899C12.8752 5.04711 13.4781 5.44899 13.6 6.07158C13.7218 6.69418 13.32 7.297 12.6974 7.41888C12.0748 7.54077 11.472 7.13888 11.3501 6.51629C11.2282 5.8937 11.6301 5.29087 12.2527 5.16899Z" fill="#2D2926"/>
<path id="Vector_2" fill-rule="evenodd" clip-rule="evenodd" d="M15.3027 20.581C15.9253 20.4591 16.5281 20.861 16.65 21.4836C16.7719 22.1062 16.37 22.709 15.7474 22.8309C15.1248 22.9528 14.522 22.5509 14.4001 21.9283C14.2782 21.3057 14.6801 20.7029 15.3027 20.581Z" fill="#2D2926"/>
<path id="Vector_3" fill-rule="evenodd" clip-rule="evenodd" d="M5.17104 15.7509C5.04915 15.1283 5.45104 14.5255 6.07363 14.4036C6.69622 14.2817 7.29904 14.6836 7.42092 15.3062C7.54281 15.9288 7.14092 16.5316 6.51833 16.6535C5.89574 16.7754 5.29292 16.3735 5.17104 15.7509Z" fill="#2D2926"/>
<path id="Vector_4" fill-rule="evenodd" clip-rule="evenodd" d="M20.5794 12.7003C20.4575 12.0777 20.8594 11.4748 21.482 11.353C22.1046 11.2311 22.7074 11.633 22.8293 12.2555C22.9512 12.8781 22.5493 13.481 21.9267 13.6028C21.3041 13.7247 20.7013 13.3228 20.5794 12.7003Z" fill="#2D2926"/>
<path id="Vector_5" fill-rule="evenodd" clip-rule="evenodd" d="M9.0084 6.51323C9.53546 6.16076 10.247 6.30241 10.5995 6.83276C10.9519 7.35982 10.8103 8.07136 10.2799 8.42383C9.75288 8.7763 9.04135 8.63465 8.68887 8.1043C8.3364 7.57724 8.47805 6.8657 9.0084 6.51323Z" fill="#2D2926"/>
<path id="Vector_6" fill-rule="evenodd" clip-rule="evenodd" d="M17.7204 19.5827C18.2475 19.2302 18.959 19.3719 19.3115 19.9022C19.6639 20.4293 19.5223 21.1408 18.9919 21.4933C18.4649 21.8458 17.7533 21.7041 17.4009 21.1738C17.0484 20.6467 17.19 19.9352 17.7204 19.5827Z" fill="#2D2926"/>
<path id="Vector_7" fill-rule="evenodd" clip-rule="evenodd" d="M6.51174 18.996C6.15926 18.469 6.30091 17.7574 6.83127 17.405C7.35832 17.0525 8.06986 17.1941 8.42233 17.7245C8.7748 18.2515 8.63315 18.9631 8.1028 19.3156C7.57574 19.668 6.86421 19.5264 6.51174 18.996Z" fill="#2D2926"/>
<path id="Vector_8" fill-rule="evenodd" clip-rule="evenodd" d="M19.5813 10.282C19.2288 9.75497 19.3705 9.04344 19.9008 8.69097C20.4279 8.33849 21.1394 8.48014 21.4919 9.0105C21.8443 9.53756 21.7027 10.2491 21.1723 10.6016C20.6453 10.954 19.9338 10.8124 19.5813 10.282Z" fill="#2D2926"/>
<path id="Vector_9" fill-rule="evenodd" clip-rule="evenodd" d="M15.7671 5.17225C16.3897 5.29743 16.7916 5.90026 16.6664 6.52285C16.5413 7.14544 15.9384 7.54732 15.3158 7.42215C14.6933 7.29697 14.2914 6.69414 14.4165 6.07155C14.5417 5.44896 15.1445 5.04708 15.7671 5.17225Z" fill="#2D2926"/>
<path id="Vector_10" fill-rule="evenodd" clip-rule="evenodd" d="M12.6875 20.5776C13.3101 20.7028 13.712 21.3057 13.5868 21.9282C13.4617 22.5508 12.8588 22.9527 12.2362 22.8275C11.6136 22.7024 11.2118 22.0995 11.3369 21.4769C11.4621 20.8544 12.0649 20.4525 12.6875 20.5776Z" fill="#2D2926"/>
<path id="Vector_11" fill-rule="evenodd" clip-rule="evenodd" d="M5.17433 12.2357C5.2995 11.6131 5.90233 11.2113 6.52492 11.3364C7.14751 11.4616 7.54939 12.0644 7.42422 12.687C7.29904 13.3096 6.69621 13.7115 6.07362 13.5863C5.45103 13.4612 5.04915 12.8583 5.17433 12.2357Z" fill="#2D2926"/>
<path id="Vector_12" fill-rule="evenodd" clip-rule="evenodd" d="M20.5759 15.3161C20.7011 14.6935 21.3039 14.2916 21.9265 14.4168C22.5491 14.5419 22.9509 15.1448 22.8258 15.7674C22.7006 16.3899 22.0978 16.7918 21.4752 16.6667C20.8526 16.5415 20.4507 15.9387 20.5759 15.3161Z" fill="#2D2926"/>
<path id="Vector_13" fill-rule="evenodd" clip-rule="evenodd" d="M6.52149 8.99394C6.87396 8.46688 7.58549 8.32523 8.11255 8.67771C8.63961 9.03018 8.78126 9.74171 8.42878 10.2688C8.07631 10.7958 7.36478 10.9375 6.83772 10.585C6.31066 10.2325 6.16902 9.521 6.52149 8.99394Z" fill="#2D2926"/>
<path id="Vector_14" fill-rule="evenodd" clip-rule="evenodd" d="M19.5748 17.7344C19.9272 17.2074 20.6388 17.0657 21.1658 17.4182C21.6929 17.7707 21.8345 18.4822 21.4821 19.0093C21.1296 19.5363 20.4181 19.678 19.891 19.3255C19.3639 18.973 19.2223 18.2582 19.5748 17.7344Z" fill="#2D2926"/>
<path id="Vector_15" fill-rule="evenodd" clip-rule="evenodd" d="M8.99516 21.4834C8.4681 21.131 8.32646 20.4194 8.67893 19.8924C9.0314 19.3653 9.74293 19.2237 10.27 19.5761C10.797 19.9286 10.9387 20.6401 10.5862 21.1672C10.2338 21.6943 9.52222 21.8359 8.99516 21.4834Z" fill="#2D2926"/>
<path id="Vector_16" fill-rule="evenodd" clip-rule="evenodd" d="M17.7336 8.42705C17.2065 8.07458 17.0648 7.36305 17.4173 6.83598C17.7698 6.30892 18.4813 6.16728 19.0084 6.51975C19.5354 6.87222 19.6771 7.58375 19.3246 8.11081C18.9721 8.63788 18.2606 8.77952 17.7336 8.42705Z" fill="#2D2926"/>
<path id="Vector_17" fill-rule="evenodd" clip-rule="evenodd" d="M11.5511 1.67668C12.0222 1.58444 12.4767 1.8875 12.5723 2.35856C12.6645 2.82962 12.3615 3.28421 11.8904 3.37974C11.4193 3.47198 10.9647 3.16892 10.8692 2.69786C10.777 2.2268 11.08 1.77221 11.5511 1.67668Z" fill="#2D2926"/>
<path id="Vector_18" fill-rule="evenodd" clip-rule="evenodd" d="M16.1129 24.6235C16.584 24.5312 17.0386 24.8343 17.1341 25.3053C17.2263 25.7764 16.9233 26.231 16.4522 26.3265C15.9811 26.4188 15.5233 26.1157 15.431 25.6446C15.3388 25.1736 15.6419 24.719 16.1129 24.6235Z" fill="#2D2926"/>
<path id="Vector_19" fill-rule="evenodd" clip-rule="evenodd" d="M1.67967 16.4527C1.58743 15.9817 1.89049 15.5271 2.36155 15.4316C2.83261 15.3393 3.2872 15.6424 3.38273 16.1134C3.47497 16.5845 3.17191 17.0391 2.70085 17.1346C2.22979 17.2269 1.7752 16.9238 1.67967 16.4527Z" fill="#2D2926"/>
<path id="Vector_20" fill-rule="evenodd" clip-rule="evenodd" d="M24.6207 11.8899C24.5285 11.4188 24.8315 10.9642 25.3026 10.8687C25.7737 10.7765 26.2315 11.0795 26.3238 11.5506C26.416 12.0216 26.1129 12.4762 25.6419 12.5718C25.1708 12.6673 24.7162 12.3609 24.6207 11.8899Z" fill="#2D2926"/>
<path id="Vector_21" fill-rule="evenodd" clip-rule="evenodd" d="M7.02216 3.55131C7.42075 3.28449 7.96098 3.3932 8.22451 3.79179C8.49134 4.19038 8.38263 4.73061 7.98404 4.99744C7.58545 5.26426 7.04522 5.15556 6.77839 4.75697C6.51157 4.35838 6.62028 3.81814 7.01887 3.55131H7.02216Z" fill="#2D2926"/>
<path id="Vector_22" fill-rule="evenodd" clip-rule="evenodd" d="M20.0161 23.0057C20.4147 22.7388 20.9549 22.8475 21.2184 23.2461C21.4853 23.6447 21.3765 24.185 20.978 24.4518C20.5794 24.7186 20.0391 24.6099 19.7723 24.2113C19.5055 23.8127 19.6142 23.2725 20.0128 23.009L20.0161 23.0057Z" fill="#2D2926"/>
<path id="Vector_23" fill-rule="evenodd" clip-rule="evenodd" d="M3.5538 20.9827C3.28698 20.5841 3.39568 20.0438 3.79427 19.777C4.19286 19.5102 4.7331 19.6189 4.99992 20.0175C5.26674 20.4161 5.15804 20.9563 4.75945 21.2199C4.36086 21.4867 3.82062 21.378 3.5538 20.9794V20.9827Z" fill="#2D2926"/>
<path id="Vector_24" fill-rule="evenodd" clip-rule="evenodd" d="M23.0035 7.9856C22.7367 7.58701 22.8454 7.04678 23.2439 6.77995C23.6425 6.51313 24.1828 6.62183 24.4496 7.02042C24.7164 7.41901 24.6077 7.95925 24.2091 8.22608C23.8105 8.4929 23.2703 8.38419 23.0035 7.9856Z" fill="#2D2926"/>
<path id="Vector_25" fill-rule="evenodd" clip-rule="evenodd" d="M16.4522 1.67668C16.9233 1.76891 17.2263 2.2268 17.1341 2.69786C17.0419 3.16892 16.584 3.47198 16.1129 3.37974C15.6419 3.28751 15.3388 2.82962 15.431 2.35856C15.5233 1.8875 15.9811 1.58444 16.4522 1.67668Z" fill="#2D2926"/>
<path id="Vector_26" fill-rule="evenodd" clip-rule="evenodd" d="M11.8904 24.6235C12.3615 24.7157 12.6645 25.1736 12.5723 25.6446C12.48 26.1157 12.0222 26.4188 11.5511 26.3265C11.08 26.2343 10.777 25.7764 10.8692 25.3053C10.9614 24.8343 11.4193 24.5312 11.8904 24.6235Z" fill="#2D2926"/>
<path id="Vector_27" fill-rule="evenodd" clip-rule="evenodd" d="M1.67967 11.5506C1.7719 11.0795 2.22979 10.7765 2.70085 10.8687C3.17191 10.9609 3.47497 11.4188 3.38273 11.8899C3.2905 12.3609 2.83261 12.664 2.36155 12.5718C1.89049 12.4795 1.58743 12.0216 1.67967 11.5506Z" fill="#2D2926"/>
<path id="Vector_28" fill-rule="evenodd" clip-rule="evenodd" d="M24.6207 16.1134C24.7129 15.6424 25.1708 15.3393 25.6419 15.4316C26.1129 15.5238 26.416 15.9817 26.3238 16.4527C26.2315 16.9238 25.7737 17.2269 25.3026 17.1346C24.8315 17.0424 24.5285 16.5845 24.6207 16.1134Z" fill="#2D2926"/>
<path id="Vector_29" fill-rule="evenodd" clip-rule="evenodd" d="M3.5538 7.02042C3.82062 6.62183 4.36086 6.51313 4.75945 6.77995C5.15804 7.04678 5.26674 7.58701 4.99992 7.9856C4.7331 8.38419 4.19286 8.4929 3.79427 8.22608C3.39568 7.95925 3.28698 7.41901 3.5538 7.02042Z" fill="#2D2926"/>
<path id="Vector_30" fill-rule="evenodd" clip-rule="evenodd" d="M23.0035 20.0175C23.2703 19.6189 23.8073 19.5102 24.2058 19.777C24.6044 20.0438 24.7131 20.5808 24.4463 20.9827C24.1795 21.3813 23.6393 21.49 23.2407 21.2231C22.8421 20.9563 22.7334 20.4161 23.0002 20.0208L23.0035 20.0175Z" fill="#2D2926"/>
<path id="Vector_31" fill-rule="evenodd" clip-rule="evenodd" d="M7.02228 24.4519C6.62369 24.1851 6.51499 23.6448 6.78181 23.2495C7.04864 22.851 7.58887 22.7423 7.98746 23.0091C8.38605 23.2759 8.49476 23.8128 8.22793 24.2147C7.96111 24.6133 7.42087 24.722 7.02228 24.4552V24.4519Z" fill="#2D2926"/>
<path id="Vector_32" fill-rule="evenodd" clip-rule="evenodd" d="M20.0161 4.99744C19.6175 4.73061 19.5088 4.19038 19.7756 3.79179C20.0424 3.3932 20.5826 3.28449 20.9812 3.55131C21.3798 3.81814 21.4885 4.35838 21.2217 4.75697C20.9549 5.15556 20.4179 5.26426 20.0194 4.99744H20.0161Z" fill="#2D2926"/>
<path id="Vector_33" fill-rule="evenodd" clip-rule="evenodd" d="M14.0015 0.793823C14.321 0.793823 14.578 1.05077 14.578 1.3703C14.578 1.68983 14.321 1.94677 14.0015 1.94677C13.682 1.94677 13.425 1.68983 13.425 1.3703C13.425 1.05077 13.682 0.793823 14.0015 0.793823Z" fill="#2D2926"/>
<path id="Vector_34" fill-rule="evenodd" clip-rule="evenodd" d="M14.0015 26.0565C14.321 26.0565 14.578 26.3135 14.578 26.633C14.578 26.9525 14.321 27.2095 14.0015 27.2095C13.682 27.2095 13.425 26.9525 13.425 26.633C13.425 26.3135 13.682 26.0565 14.0015 26.0565Z" fill="#2D2926"/>
<path id="Vector_35" fill-rule="evenodd" clip-rule="evenodd" d="M0.796936 14.0016C0.796936 13.6821 1.05388 13.4252 1.37341 13.4252C1.69294 13.4252 1.94988 13.6821 1.94988 14.0016C1.94988 14.3212 1.69294 14.5781 1.37341 14.5781C1.05388 14.5781 0.796936 14.3212 0.796936 14.0016Z" fill="#2D2926"/>
<path id="Vector_36" fill-rule="evenodd" clip-rule="evenodd" d="M26.0536 14.0016C26.0536 13.6821 26.3105 13.4252 26.63 13.4252C26.9496 13.4252 27.2065 13.6821 27.2065 14.0016C27.2065 14.3212 26.9496 14.5781 26.63 14.5781C26.3105 14.5781 26.0536 14.3212 26.0536 14.0016Z" fill="#2D2926"/>
<path id="Vector_37" fill-rule="evenodd" clip-rule="evenodd" d="M8.94892 1.79862C9.24209 1.67674 9.58139 1.81509 9.69998 2.11156C9.82186 2.40474 9.68351 2.74403 9.38704 2.86262C9.09386 2.98451 8.75456 2.84615 8.63598 2.54968C8.51409 2.2565 8.65245 1.91721 8.94892 1.79862Z" fill="#2D2926"/>
<path id="Vector_38" fill-rule="evenodd" clip-rule="evenodd" d="M18.6131 25.1407C18.9063 25.0188 19.2456 25.1571 19.3642 25.4536C19.4861 25.7468 19.3477 26.0861 19.0513 26.2047C18.7581 26.3265 18.4188 26.1882 18.3002 25.8917C18.1783 25.5985 18.3167 25.2625 18.6131 25.1407Z" fill="#2D2926"/>
<path id="Vector_39" fill-rule="evenodd" clip-rule="evenodd" d="M1.80155 19.0555C1.67967 18.7624 1.81802 18.4264 2.11449 18.3045C2.40767 18.1826 2.74696 18.3209 2.86555 18.6174C2.98743 18.9106 2.84908 19.2499 2.55261 19.3685C2.25943 19.4904 1.92014 19.352 1.80155 19.0555Z" fill="#2D2926"/>
<path id="Vector_40" fill-rule="evenodd" clip-rule="evenodd" d="M25.1379 9.38916C25.016 9.09598 25.1544 8.75669 25.4509 8.6381C25.744 8.51621 26.08 8.65457 26.2019 8.95104C26.3238 9.24422 26.1855 9.58351 25.889 9.7021C25.5958 9.82398 25.2598 9.68563 25.1379 9.38916Z" fill="#2D2926"/>
<path id="Vector_41" fill-rule="evenodd" clip-rule="evenodd" d="M19.0542 1.79866C19.3474 1.92054 19.4891 2.25654 19.3672 2.54972C19.2453 2.8429 18.9093 2.98455 18.6161 2.86266C18.3229 2.74078 18.1813 2.40478 18.3032 2.1116C18.4251 1.81842 18.7611 1.67678 19.0542 1.79866Z" fill="#2D2926"/>
<path id="Vector_42" fill-rule="evenodd" clip-rule="evenodd" d="M9.39027 25.1407C9.68344 25.2626 9.82509 25.5986 9.70321 25.8918C9.58133 26.1849 9.24532 26.3266 8.95215 26.2047C8.65897 26.0828 8.51732 25.7468 8.6392 25.4536C8.76109 25.1605 9.09709 25.0188 9.39027 25.1407Z" fill="#2D2926"/>
<path id="Vector_43" fill-rule="evenodd" clip-rule="evenodd" d="M1.80136 8.94778C1.92324 8.65461 2.25924 8.51296 2.55242 8.63484C2.8456 8.75672 2.98724 9.09273 2.86536 9.3859C2.74348 9.67908 2.40748 9.82073 2.1143 9.69885C1.82112 9.57696 1.67948 9.24096 1.80136 8.94778Z" fill="#2D2926"/>
<path id="Vector_44" fill-rule="evenodd" clip-rule="evenodd" d="M25.1379 18.6142C25.2598 18.321 25.5958 18.1793 25.8889 18.3012C26.1821 18.4231 26.3238 18.7591 26.2019 19.0523C26.08 19.3455 25.744 19.4871 25.4508 19.3652C25.1576 19.2433 25.016 18.9073 25.1379 18.6142Z" fill="#2D2926"/>
<path id="Vector_45" fill-rule="evenodd" clip-rule="evenodd" d="M4.6637 4.66165C4.8877 4.43765 5.25335 4.43765 5.47735 4.66165C5.70135 4.88565 5.70135 5.2513 5.47735 5.4753C5.25335 5.69931 4.8877 5.69931 4.6637 5.4753C4.4397 5.2513 4.4397 4.88565 4.6637 4.66165Z" fill="#2D2926"/>
<path id="Vector_46" fill-rule="evenodd" clip-rule="evenodd" d="M22.5227 22.5248C22.7467 22.3008 23.1123 22.3008 23.3363 22.5248C23.5603 22.7488 23.5603 23.1145 23.3363 23.3385C23.1123 23.5625 22.7467 23.5625 22.5227 23.3385C22.2987 23.1145 22.2987 22.7488 22.5227 22.5248Z" fill="#2D2926"/>
<path id="Vector_47" fill-rule="evenodd" clip-rule="evenodd" d="M4.6637 23.3416C4.4397 23.1176 4.4397 22.752 4.6637 22.528C4.8877 22.304 5.25335 22.304 5.47735 22.528C5.70135 22.752 5.70135 23.1176 5.47735 23.3416C5.25335 23.5656 4.8877 23.5656 4.6637 23.3416Z" fill="#2D2926"/>
<path id="Vector_48" fill-rule="evenodd" clip-rule="evenodd" d="M22.5227 5.47848C22.2987 5.25448 22.2987 4.88883 22.5227 4.66483C22.7467 4.44083 23.1123 4.44083 23.3363 4.66483C23.5603 4.88883 23.5603 5.25448 23.3363 5.47848C23.1123 5.70248 22.7467 5.70248 22.5227 5.47848Z" fill="#2D2926"/>
<path id="Vector_49" fill-rule="evenodd" clip-rule="evenodd" d="M14.0018 2.85938C14.687 2.85938 15.2404 3.41279 15.2404 4.09797C15.2404 4.78315 14.687 5.33656 14.0018 5.33656C13.3166 5.33656 12.7632 4.78315 12.7632 4.09797C12.7632 3.41279 13.3166 2.85938 14.0018 2.85938Z" fill="#2D2926"/>
<path id="Vector_50" fill-rule="evenodd" clip-rule="evenodd" d="M14.0018 22.6665C14.687 22.6665 15.2404 23.2199 15.2404 23.9051C15.2404 24.5903 14.687 25.1437 14.0018 25.1437C13.3166 25.1437 12.7632 24.5903 12.7632 23.9051C12.7632 23.2199 13.3166 22.6665 14.0018 22.6665Z" fill="#2D2926"/>
<path id="Vector_51" fill-rule="evenodd" clip-rule="evenodd" d="M2.86218 14.0017C2.86218 13.3165 3.4156 12.7631 4.10077 12.7631C4.78595 12.7631 5.33936 13.3165 5.33936 14.0017C5.33936 14.6868 4.78595 15.2402 4.10077 15.2402C3.4156 15.2402 2.86218 14.6868 2.86218 14.0017Z" fill="#2D2926"/>
<path id="Vector_52" fill-rule="evenodd" clip-rule="evenodd" d="M22.6641 14.0017C22.6641 13.3165 23.2175 12.7631 23.9027 12.7631C24.5879 12.7631 25.1413 13.3165 25.1413 14.0017C25.1413 14.6868 24.5879 15.2402 23.9027 15.2402C23.2175 15.2402 22.6641 14.6868 22.6641 14.0017Z" fill="#2D2926"/>
<path id="Vector_53" fill-rule="evenodd" clip-rule="evenodd" d="M9.73948 3.7062C10.372 3.44596 11.0967 3.74573 11.3569 4.3782C11.6171 5.01068 11.3174 5.73539 10.6849 5.99562C10.0524 6.25586 9.32772 5.95609 9.06748 5.32362C8.80725 4.69115 9.10701 3.96644 9.73948 3.7062Z" fill="#2D2926"/>
<path id="Vector_54" fill-rule="evenodd" clip-rule="evenodd" d="M17.3185 22.0074C17.951 21.7439 18.6757 22.0469 18.9359 22.6794C19.1962 23.3119 18.8964 24.0366 18.2639 24.2968C17.6315 24.557 16.9067 24.2573 16.6465 23.6248C16.3863 22.9923 16.686 22.2676 17.3185 22.0074Z" fill="#2D2926"/>
<path id="Vector_55" fill-rule="evenodd" clip-rule="evenodd" d="M3.70867 18.2647C3.44844 17.6322 3.7482 16.9075 4.38067 16.6472C5.01315 16.387 5.73785 16.6868 5.99809 17.3192C6.25832 17.9517 5.95856 18.6764 5.32609 18.9367C4.69362 19.2002 3.96891 18.8971 3.70867 18.2647Z" fill="#2D2926"/>
<path id="Vector_56" fill-rule="evenodd" clip-rule="evenodd" d="M22.0054 10.6838C21.7452 10.0514 22.045 9.32667 22.6774 9.06643C23.3099 8.80619 24.0346 9.10596 24.2948 9.73843C24.5551 10.3709 24.2553 11.0956 23.6228 11.3559C22.9904 11.6161 22.2657 11.3163 22.0054 10.6838Z" fill="#2D2926"/>
<path id="Vector_57" fill-rule="evenodd" clip-rule="evenodd" d="M18.2639 3.7062C18.8964 3.96644 19.1962 4.69115 18.9359 5.32362C18.6757 5.95609 17.951 6.25586 17.3185 5.99562C16.686 5.73539 16.3863 5.01068 16.6465 4.3782C16.9067 3.74573 17.6347 3.44596 18.2639 3.7062Z" fill="#2D2926"/>
<path id="Vector_58" fill-rule="evenodd" clip-rule="evenodd" d="M10.6849 22.0075C11.3174 22.271 11.6171 22.9957 11.3569 23.6249C11.0967 24.2574 10.372 24.5571 9.73948 24.2969C9.10701 24.0334 8.80725 23.3087 9.06748 22.6795C9.32772 22.047 10.0524 21.7472 10.6849 22.0075Z" fill="#2D2926"/>
<path id="Vector_59" fill-rule="evenodd" clip-rule="evenodd" d="M3.70867 9.73843C3.96891 9.10596 4.69362 8.80619 5.32609 9.06643C5.95856 9.32667 6.25832 10.0514 5.99809 10.6838C5.73785 11.3163 5.01315 11.6161 4.38067 11.3559C3.7482 11.0956 3.44844 10.3676 3.70867 9.73843Z" fill="#2D2926"/>
<path id="Vector_60" fill-rule="evenodd" clip-rule="evenodd" d="M22.0054 17.3192C22.2657 16.6868 22.9904 16.387 23.6228 16.6472C24.2553 16.9108 24.5551 17.6322 24.2948 18.2647C24.0313 18.8971 23.3099 19.1969 22.6774 18.9367C22.045 18.6764 21.7452 17.9517 22.0054 17.3192Z" fill="#2D2926"/>
<path id="Vector_61" fill-rule="evenodd" clip-rule="evenodd" d="M6.12305 6.12111C6.60729 5.63688 7.39129 5.63688 7.87552 6.12111C8.35976 6.60535 8.35976 7.38935 7.87552 7.87359C7.39129 8.35783 6.60729 8.35783 6.12305 7.87359C5.63881 7.38935 5.63881 6.60535 6.12305 6.12111Z" fill="#2D2926"/>
<path id="Vector_62" fill-rule="evenodd" clip-rule="evenodd" d="M20.1282 20.1295C20.6124 19.6453 21.3964 19.6453 21.8806 20.1295C22.3649 20.6138 22.3649 21.3978 21.8806 21.882C21.3964 22.3663 20.6124 22.3663 20.1282 21.882C19.6439 21.3978 19.6439 20.6138 20.1282 20.1295Z" fill="#2D2926"/>
<path id="Vector_63" fill-rule="evenodd" clip-rule="evenodd" d="M6.12305 21.882C5.63881 21.3978 5.63881 20.6138 6.12305 20.1295C6.60729 19.6453 7.39129 19.6453 7.87552 20.1295C8.35976 20.6138 8.35976 21.3978 7.87552 21.882C7.39129 22.3663 6.60729 22.3663 6.12305 21.882Z" fill="#2D2926"/>
<path id="Vector_64" fill-rule="evenodd" clip-rule="evenodd" d="M20.1282 7.87359C19.6439 7.38935 19.6439 6.60535 20.1282 6.12111C20.6124 5.63688 21.3964 5.63688 21.8806 6.12111C22.3649 6.60535 22.3649 7.38935 21.8806 7.87359C21.3964 8.35783 20.6124 8.35783 20.1282 7.87359Z" fill="#2D2926"/>
<path id="Vector_65" fill-rule="evenodd" clip-rule="evenodd" d="M11.2185 0.00967714C11.4754 -0.043029 11.7258 0.124972 11.7752 0.381914C11.8279 0.638856 11.6599 0.88921 11.4029 0.941916C11.146 0.994623 10.8956 0.826622 10.8462 0.56968C10.7935 0.312737 10.9615 0.0623832 11.2185 0.00967714Z" fill="#2D2926"/>
<path id="Vector_66" fill-rule="evenodd" clip-rule="evenodd" d="M16.6005 27.0614C16.8574 27.0087 17.1078 27.1767 17.1605 27.4337C17.2132 27.6906 17.0452 27.941 16.7883 27.9904C16.5313 28.0431 16.281 27.8751 16.2283 27.6181C16.1789 27.3612 16.3436 27.1108 16.6005 27.0614Z" fill="#2D2926"/>
<path id="Vector_67" fill-rule="evenodd" clip-rule="evenodd" d="M0.012912 16.7855C-0.039794 16.5286 0.128206 16.2782 0.385148 16.2288C0.64209 16.1761 0.892443 16.3441 0.941855 16.601C0.994561 16.858 0.826561 17.1083 0.569619 17.161C0.312677 17.2137 0.0623238 17.0457 0.00961785 16.7888H0.012912V16.7855Z" fill="#2D2926"/>
<path id="Vector_68" fill-rule="evenodd" clip-rule="evenodd" d="M27.058 11.4023C27.0053 11.1454 27.1733 10.895 27.4303 10.8456C27.6872 10.7929 27.9376 10.9609 27.987 11.2179C28.0397 11.4748 27.8717 11.7251 27.6147 11.7746C27.3578 11.8273 27.1074 11.6593 27.0547 11.4023H27.058Z" fill="#2D2926"/>
<path id="Vector_69" fill-rule="evenodd" clip-rule="evenodd" d="M6.07671 2.13794C6.29412 1.99299 6.59059 2.05229 6.73553 2.2697C6.88047 2.48711 6.82118 2.78359 6.60377 2.92853C6.38635 3.07347 6.08988 3.01417 5.94494 2.79676C5.8 2.57935 5.85929 2.28288 6.07671 2.13794Z" fill="#2D2926"/>
<path id="Vector_70" fill-rule="evenodd" clip-rule="evenodd" d="M21.3996 25.0748C21.617 24.9299 21.9135 24.9892 22.0584 25.2066C22.2033 25.424 22.1441 25.7205 21.9266 25.8654C21.7092 26.0104 21.4128 25.9511 21.2678 25.7337C21.1229 25.5162 21.1822 25.2198 21.3996 25.0748Z" fill="#2D2926"/>
<path id="Vector_71" fill-rule="evenodd" clip-rule="evenodd" d="M2.14059 21.9284C1.99565 21.7109 2.05494 21.4145 2.27236 21.2695C2.48977 21.1246 2.78624 21.1839 2.93118 21.4013C3.07612 21.6187 3.01683 21.9152 2.79942 22.0601C2.582 22.2051 2.28553 22.1458 2.14059 21.9284Z" fill="#2D2926"/>
<path id="Vector_72" fill-rule="evenodd" clip-rule="evenodd" d="M25.0719 6.60194C24.927 6.38452 24.9863 6.08805 25.2037 5.94311C25.4211 5.79817 25.7176 5.85746 25.8625 6.07488C26.0074 6.29229 25.9481 6.58876 25.7307 6.7337C25.5133 6.87864 25.2169 6.81935 25.0719 6.60194Z" fill="#2D2926"/>
<path id="Vector_73" fill-rule="evenodd" clip-rule="evenodd" d="M16.785 0.00967714C17.0419 0.0623832 17.2099 0.309443 17.1572 0.56968C17.1045 0.826622 16.8575 0.994623 16.5972 0.941916C16.3403 0.88921 16.1723 0.64215 16.225 0.381914C16.2777 0.124972 16.5247 -0.043029 16.785 0.00967714Z" fill="#2D2926"/>
<path id="Vector_74" fill-rule="evenodd" clip-rule="evenodd" d="M11.4029 27.0614C11.6599 27.1141 11.8279 27.3612 11.7752 27.6181C11.7225 27.8751 11.4754 28.0431 11.2185 27.9904C10.9615 27.9377 10.7935 27.6906 10.8462 27.4337C10.8989 27.1767 11.146 27.0087 11.4062 27.0614H11.4029Z" fill="#2D2926"/>
<path id="Vector_75" fill-rule="evenodd" clip-rule="evenodd" d="M0.0129255 11.2179C0.0656314 10.9609 0.312691 10.7929 0.569632 10.8456C0.826574 10.8983 0.994574 11.1454 0.941868 11.4056C0.889162 11.6659 0.642103 11.8306 0.381867 11.7779C0.124926 11.7251 -0.0430746 11.4781 0.00963133 11.2211H0.0129255V11.2179Z" fill="#2D2926"/>
<path id="Vector_76" fill-rule="evenodd" clip-rule="evenodd" d="M27.058 16.601C27.1107 16.3441 27.3578 16.1761 27.618 16.2288C27.875 16.2815 28.043 16.5286 27.9903 16.7855C27.9408 17.0424 27.6905 17.2104 27.4335 17.1577C27.1766 17.105 27.0086 16.858 27.0613 16.5977L27.058 16.601Z" fill="#2D2926"/>
<path id="Vector_77" fill-rule="evenodd" clip-rule="evenodd" d="M2.14059 6.07488C2.28553 5.85746 2.582 5.79817 2.79942 5.94311C3.01683 6.08805 3.07612 6.38452 2.93118 6.60194C2.78624 6.81935 2.48977 6.87864 2.27236 6.7337C2.05494 6.58876 1.99565 6.29229 2.14059 6.07488Z" fill="#2D2926"/>
<path id="Vector_78" fill-rule="evenodd" clip-rule="evenodd" d="M25.0719 21.4013C25.2169 21.1839 25.5133 21.1246 25.7307 21.2695C25.9481 21.4145 26.0074 21.7109 25.8625 21.9284C25.7176 22.1458 25.4211 22.2051 25.2037 22.0601C24.9863 21.9152 24.927 21.6187 25.0719 21.4013Z" fill="#2D2926"/>
<path id="Vector_79" fill-rule="evenodd" clip-rule="evenodd" d="M6.07671 25.8654C5.85929 25.7205 5.8 25.424 5.94494 25.2066C6.08988 24.9892 6.38635 24.9299 6.60377 25.0748C6.82118 25.2198 6.88047 25.5162 6.73553 25.7337C6.59059 25.9511 6.29412 26.0104 6.07671 25.8654Z" fill="#2D2926"/>
<path id="Vector_80" fill-rule="evenodd" clip-rule="evenodd" d="M21.3996 2.92853C21.1822 2.78359 21.1229 2.48711 21.2678 2.2697C21.4128 2.05229 21.7092 1.99299 21.9266 2.13794C22.1441 2.28288 22.2033 2.57935 22.0584 2.79676C21.9135 3.01417 21.617 3.07347 21.3996 2.92853Z" fill="#2D2926"/>
<path id="Vector_81" fill-rule="evenodd" clip-rule="evenodd" d="M14.0018 7.01062C14.43 7.01062 14.7792 7.3598 14.7792 7.78804C14.7792 8.21627 14.43 8.56545 14.0018 8.56545C13.5735 8.56545 13.2244 8.21627 13.2244 7.78804C13.2244 7.3598 13.5735 7.01062 14.0018 7.01062Z" fill="#2D2926"/>
<path id="Vector_82" fill-rule="evenodd" clip-rule="evenodd" d="M14.0018 19.4377C14.43 19.4377 14.7792 19.7869 14.7792 20.2152C14.7792 20.6434 14.43 20.9926 14.0018 20.9926C13.5735 20.9926 13.2244 20.6434 13.2244 20.2152C13.2244 19.7869 13.5735 19.4377 14.0018 19.4377Z" fill="#2D2926"/>
<path id="Vector_83" fill-rule="evenodd" clip-rule="evenodd" d="M7.01222 14.0017C7.01222 13.5734 7.3614 13.2242 7.78964 13.2242C8.21787 13.2242 8.56705 13.5734 8.56705 14.0017C8.56705 14.4299 8.21787 14.7791 7.78964 14.7791C7.3614 14.7791 7.01222 14.4299 7.01222 14.0017Z" fill="#2D2926"/>
<path id="Vector_84" fill-rule="evenodd" clip-rule="evenodd" d="M19.4364 14.0017C19.4364 13.5734 19.7855 13.2242 20.2138 13.2242C20.642 13.2242 20.9912 13.5734 20.9912 14.0017C20.9912 14.4299 20.642 14.7791 20.2138 14.7791C19.7855 14.7791 19.4364 14.4299 19.4364 14.0017Z" fill="#2D2926"/>
<path id="Vector_85" fill-rule="evenodd" clip-rule="evenodd" d="M11.3269 7.54112C11.7222 7.37641 12.1768 7.56418 12.3415 7.96277C12.5062 8.35806 12.3185 8.81265 11.9199 8.97736C11.5246 9.14207 11.07 8.9543 10.9053 8.55571C10.7406 8.16041 10.9283 7.70582 11.3269 7.54112Z" fill="#2D2926"/>
<path id="Vector_86" fill-rule="evenodd" clip-rule="evenodd" d="M16.0832 19.026C16.4785 18.8613 16.9331 19.049 17.0978 19.4476C17.2625 19.8429 17.0748 20.2975 16.6762 20.4622C16.2809 20.6269 15.8263 20.4392 15.6616 20.0406C15.4969 19.6453 15.6847 19.1907 16.0832 19.026Z" fill="#2D2926"/>
<path id="Vector_87" fill-rule="evenodd" clip-rule="evenodd" d="M7.54251 16.6767C7.3778 16.2814 7.56556 15.8268 7.96415 15.6621C8.35945 15.4974 8.81404 15.6851 8.97874 16.0837C9.14345 16.479 8.95569 16.9336 8.5571 17.0983C8.1618 17.263 7.70721 17.0753 7.54251 16.6767Z" fill="#2D2926"/>
<path id="Vector_88" fill-rule="evenodd" clip-rule="evenodd" d="M19.0246 11.9227C18.8599 11.5274 19.0477 11.0728 19.4463 10.9081C19.8416 10.7434 20.2962 10.9311 20.4609 11.3297C20.6256 11.725 20.4378 12.1796 20.0392 12.3443C19.6439 12.509 19.1893 12.3212 19.0246 11.9227Z" fill="#2D2926"/>
<path id="Vector_89" fill-rule="evenodd" clip-rule="evenodd" d="M16.6763 7.54104C17.0716 7.70574 17.2626 8.16033 17.0979 8.55563C16.9332 8.95092 16.4786 9.14198 16.0833 8.97728C15.688 8.81257 15.497 8.35798 15.6617 7.96268C15.8264 7.56739 16.281 7.37633 16.6763 7.54104Z" fill="#2D2926"/>
<path id="Vector_90" fill-rule="evenodd" clip-rule="evenodd" d="M11.9234 19.0259C12.3187 19.1906 12.5097 19.6452 12.345 20.0405C12.1803 20.4358 11.7257 20.6268 11.3304 20.4621C10.9351 20.2974 10.7441 19.8428 10.9088 19.4475C11.0735 19.0523 11.5281 18.8612 11.9234 19.0259Z" fill="#2D2926"/>
<path id="Vector_91" fill-rule="evenodd" clip-rule="evenodd" d="M7.54244 11.3265C7.70715 10.9312 8.16173 10.7401 8.55703 10.9048C8.95232 11.0695 9.14338 11.5241 8.97868 11.9194C8.81397 12.3147 8.35938 12.5058 7.96409 12.341C7.56879 12.1763 7.37773 11.7218 7.54244 11.3265Z" fill="#2D2926"/>
<path id="Vector_92" fill-rule="evenodd" clip-rule="evenodd" d="M19.0246 16.0838C19.1893 15.6885 19.6439 15.4974 20.0392 15.6621C20.4345 15.8268 20.6255 16.2814 20.4608 16.6767C20.2961 17.072 19.8415 17.2631 19.4462 17.0984C19.0509 16.9337 18.8599 16.4791 19.0246 16.0838Z" fill="#2D2926"/>
<path id="Vector_93" fill-rule="evenodd" clip-rule="evenodd" d="M9.05771 9.05652C9.36077 8.75346 9.85489 8.75346 10.1579 9.05652C10.461 9.35958 10.461 9.8537 10.1579 10.1568C9.85489 10.4598 9.36077 10.4598 9.05771 10.1568C8.75465 9.8537 8.75465 9.35958 9.05771 9.05652Z" fill="#2D2926"/>
<path id="Vector_94" fill-rule="evenodd" clip-rule="evenodd" d="M17.8454 17.8464C18.1484 17.5434 18.6425 17.5434 18.9456 17.8464C19.2486 18.1495 19.2486 18.6436 18.9456 18.9467C18.6425 19.2497 18.1484 19.2497 17.8454 18.9467C17.5423 18.6436 17.5423 18.1495 17.8454 17.8464Z" fill="#2D2926"/>
<path id="Vector_95" fill-rule="evenodd" clip-rule="evenodd" d="M9.05771 18.9467C8.75465 18.6436 8.75465 18.1495 9.05771 17.8464C9.36077 17.5434 9.85489 17.5434 10.1579 17.8464C10.461 18.1495 10.461 18.6436 10.1579 18.9467C9.85489 19.2497 9.36077 19.2497 9.05771 18.9467Z" fill="#2D2926"/>
<path id="Vector_96" fill-rule="evenodd" clip-rule="evenodd" d="M17.8454 10.1568C17.5423 9.8537 17.5423 9.35958 17.8454 9.05652C18.1484 8.75346 18.6425 8.75346 18.9456 9.05652C19.2486 9.35958 19.2486 9.8537 18.9456 10.1568C18.6425 10.4598 18.1484 10.4598 17.8454 10.1568Z" fill="#2D2926"/>
</g>
</svg>
